<?xml version="1.0" encoding="UTF-8" standalone="no"?>
<svg width="12px" height="8px" viewBox="0 0 12 8" version="1.1" xmlns="http://www.w3.org/2000/svg" xmlns:xlink="http://www.w3.org/1999/xlink">
    <!-- Generator: Sketch 44.1 (41455) - http://www.bohemiancoding.com/sketch -->
    <title>Shape</title>
    <desc>Created with Sketch.</desc>
    <defs></defs>
    <g id="DESKTOP" stroke="none" stroke-width="1" fill="none" fill-rule="evenodd">
        <g id="3A---TASTE-LANDING---recipe-dropdown" transform="translate(-948.000000, -1164.000000)" fill-rule="nonzero" fill="#E06428">
            <g id="FEATURED-RECIPES-MENU" transform="translate(80.000000, 800.000000)">
                <g id="noun_1014244_cc" transform="translate(868.000000, 163.000000)">
                    <path d="M10.9875906,201.853049 C10.7376972,201.61565 10.3503625,201.61565 10.1004691,201.853049 L4.54034115,207.513134 L1.99142857,205.076674 C1.86648188,204.951727 1.71654584,204.889254 1.54162047,204.901748 C1.37918977,204.901748 1.21675906,204.976716 1.10430704,205.101663 C0.991855011,205.214115 0.929381663,205.376546 0.929381663,205.538977 C0.929381663,205.701407 1.00434968,205.863838 1.12929638,205.97629 L4.12801706,208.825075 C4.24046908,208.937527 4.40289979,209 4.56533049,209 C4.74025586,209 4.90268657,208.937527 5.01513859,208.825075 L11.01258,202.740171 C11.1375267,202.615224 11.2,202.452793 11.2,202.277868 C11.1750107,202.115437 11.1125373,201.965501 10.9875906,201.853049 Z" id="Shape"></path>
                </g>
            </g>
        </g>
    </g>
</svg>