<?xml version="1.0" encoding="UTF-8" standalone="no"?>
<svg width="60px" height="18px" viewBox="0 0 60 18" version="1.1" xmlns="http://www.w3.org/2000/svg" xmlns:xlink="http://www.w3.org/1999/xlink">
    <!-- Generator: Sketch Beta 45 (43276) - http://www.bohemiancoding.com/sketch -->
    <title>featured-recipe-icons</title>
    <desc>Created with Sketch Beta.</desc>
    <defs></defs>
    <g id="Page-1" stroke="none" stroke-width="1" fill="none" fill-rule="evenodd">
        <g id="featured-recipe-icons" fill="#FFFFFF">
            <path d="M50.4183507,4.35794704 C50.4386632,4.39857204 50.4996007,4.39857204 50.5808507,4.39857204 C50.6214757,4.37825954 50.6417882,4.31732204 50.6621007,4.27669704 L50.6621007,4.23607204 C50.6824132,4.21575954 50.7027257,4.13450954 50.7230382,4.09388454 L50.7230382,4.05325954 L50.7433507,4.05325954 C50.7839757,3.95169704 50.8246007,3.82982204 50.8855382,3.72825954 C50.8855382,3.70794704 50.9261632,3.68763454 50.9261632,3.64700954 C50.9261632,3.62669704 50.9464757,3.62669704 50.9667882,3.60638454 L50.9667882,3.56575954 C50.9871007,3.54544704 51.0277257,3.44388454 51.0480382,3.38294704 C51.0480382,3.38294704 51.0683507,3.38294704 51.0683507,3.36263454 C51.0683507,3.32200954 51.1089757,3.28138454 51.1292882,3.22044704 C51.1496007,3.15950954 51.1699132,3.09857204 51.1902257,3.03763454 C51.1902257,3.01732204 51.2308507,3.01732204 51.2308507,2.99700954 L51.2308507,2.95638454 C51.2511632,2.93607204 51.2511632,2.91575954 51.2714757,2.89544704 L51.3121007,2.87513454 C51.3324132,2.85482204 51.3324132,2.81419704 51.3527257,2.77357204 C51.3527257,2.75325954 51.3933507,2.75325954 51.3933507,2.73294704 L51.3933507,2.69232204 C51.4339757,2.67200954 51.4339757,2.59075954 51.4542882,2.50950954 C51.4542882,2.50950954 51.4746007,2.50950954 51.4746007,2.48919704 C51.4746007,2.44857204 51.4949132,2.40794704 51.5152257,2.36732204 L51.5152257,2.32669704 L51.5355382,2.32669704 L51.5355382,2.28607204 C51.5558507,2.26575954 51.5558507,2.26575954 51.5558507,2.24544704 L51.5761632,2.18450954 C51.5964757,2.16419704 51.5964757,2.14388454 51.6167882,2.12357204 L51.6167882,2.08294704 C51.6777257,2.04232204 51.7183507,1.87982204 51.7589757,1.79857204 C51.7589757,1.79857204 51.7792882,1.79857204 51.7792882,1.77825954 C51.7792882,1.75794704 51.7792882,1.73763454 51.7996007,1.69700954 C51.7996007,1.67669704 51.8402257,1.67669704 51.8402257,1.65638454 L51.8402257,1.61575954 C51.8605382,1.59544704 51.8605382,1.55482204 51.8808507,1.51419704 C51.8808507,1.49388454 51.9214757,1.49388454 51.9214757,1.47357204 L51.9214757,1.43294704 C51.9417882,1.41263454 51.9417882,1.41263454 51.9417882,1.39232204 L51.9621007,1.33138454 L51.9824132,1.33138454 C52.0230382,1.27044704 52.0230382,1.20950954 52.0636632,1.12825954 C52.0636632,1.12825954 52.0839757,1.12825954 52.0839757,1.10794704 C52.0839757,1.06732204 52.1042882,1.04700954 52.1246007,1.00638454 C52.1246007,0.986072038 52.1246007,0.965759538 52.1449132,0.925134538 C52.1449132,0.904822038 52.1855382,0.904822038 52.1855382,0.884509538 L52.1855382,0.843884538 L52.2058507,0.843884538 L52.2058507,0.803259538 L52.2261632,0.803259538 L52.2261632,0.762634538 C52.2464757,0.742322038 52.2464757,0.722009538 52.2667882,0.701697038 L52.2667882,0.661072038 C52.2871007,0.640759538 52.3074132,0.620447038 52.3277257,0.559509538 C52.3277257,0.539197038 52.3683507,0.539197038 52.3683507,0.518884538 L52.3683507,0.478259538 L52.3886632,0.478259538 C52.4089757,0.457947038 52.3886632,0.397009538 52.4089757,0.376697038 C52.4089757,0.356384538 52.4292882,0.356384538 52.4496007,0.336072038 C52.4496007,0.315759538 52.4699132,0.315759538 52.4699132,0.295447038 C52.4902257,0.275134538 52.4902257,0.275134538 52.5105382,0.254822038 L52.5105382,0.214197038 L52.6527257,0.0720095385 C52.7136632,0.0313845385 52.8558507,0.0110720385 52.9574132,0.0110720385 L52.9980382,0.0110720385 C53.0386632,-0.0295529615 53.2011632,0.0516970385 53.3027257,0.0923220385 C53.3839757,0.112634538 53.4652257,0.132947038 53.5261632,0.173572038 C53.5464757,0.173572038 53.5464757,0.193884538 53.5667882,0.214197038 C53.5871007,0.234509538 53.6480382,0.275134538 53.6888663,0.315759538 C53.7089757,0.336072038 53.6888663,0.356384538 53.7089757,0.376697038 L53.7496007,0.397009538 C53.7496007,0.417322038 53.7904288,0.457947038 53.7904288,0.478259538 C53.7904288,0.498572038 53.8105382,0.518884538 53.8308507,0.539197038 C53.8308507,0.559509538 53.8511632,0.559509538 53.8511632,0.579822038 C53.8511632,0.600134538 53.8919913,0.600134538 53.8919913,0.620447038 L53.8919913,0.661072038 L53.9121007,0.661072038 C53.9324132,0.701697038 53.9324132,0.722009538 53.9527257,0.762634538 L53.9935538,0.803259538 L53.9935538,0.864197038 C53.9935538,0.884509538 54.0339757,0.884509538 54.0339757,0.904822038 L54.0339757,0.945447038 C54.0542882,0.965759538 54.0542882,0.986072038 54.0746007,1.00638454 L54.0746007,1.04700954 C54.0951163,1.06732204 54.0951163,1.06732204 54.0951163,1.08763454 L54.1152257,1.14857204 C54.1558507,1.18919704 54.1966788,1.31107204 54.2371007,1.41263454 L54.2371007,1.45325954 C54.2777257,1.49388454 54.3183507,1.63607204 54.3386632,1.71732204 C54.3386632,1.71732204 54.3589757,1.71732204 54.3589757,1.73763454 C54.3589757,1.77825954 54.3589757,1.83919704 54.3792882,1.90013454 C54.3792882,1.92044704 54.4199132,1.94075954 54.4199132,1.94075954 C54.4402257,1.98138454 54.4199132,2.00169704 54.4402257,2.06263454 C54.4402257,2.06263454 54.4605382,2.06263454 54.4605382,2.08294704 C54.4605382,2.12357204 54.5214757,2.20482204 54.5417882,2.24544704 C54.5417882,2.26575954 54.5621007,2.26575954 54.5621007,2.28607204 C54.5824132,2.30638454 54.5824132,2.30638454 54.6029288,2.32669704 L54.6029288,2.36732204 C54.6230382,2.36732204 54.6636632,2.42825954 54.6636632,2.44857204 L54.6636632,2.46888454 L54.7044913,2.50950954 L54.7044913,2.57044704 C54.7044913,2.59075954 54.7449132,2.59075954 54.7449132,2.61107204 L54.7449132,2.65169704 C54.8060538,2.69232204 54.8464757,2.85482204 54.8871007,2.93607204 C54.8871007,2.95638454 54.8871007,2.97669704 54.9076163,2.99700954 L54.9480382,3.01732204 C54.9683507,3.03763454 54.9683507,3.07825954 54.9886632,3.11888454 C54.9886632,3.13919704 55.0292882,3.13919704 55.0292882,3.15950954 L55.0292882,3.20013454 C55.0496007,3.22044704 55.0496007,3.28138454 55.0902257,3.34232204 C55.1107413,3.36263454 55.1308507,3.46419704 55.1511632,3.52513454 C55.1511632,3.52513454 55.1714757,3.52513454 55.1714757,3.54544704 C55.1714757,3.58607204 55.1917882,3.62669704 55.2123038,3.68763454 C55.2123038,3.68763454 55.2324132,3.68763454 55.2324132,3.70794704 L55.2324132,3.72825954 C55.2527257,3.76888454 55.2730382,3.85013454 55.2933507,3.93138454 C55.2933507,3.95169704 55.3138663,3.95169704 55.3138663,3.97200954 C55.3339757,3.99232204 55.3542882,4.05325954 55.3746007,4.11419704 C55.3746007,4.13450954 55.3949132,4.13450954 55.3949132,4.13450954 C55.4154288,4.17513454 55.4154288,4.23607204 55.4355382,4.29700954 C55.4355382,4.29700954 55.4558507,4.29700954 55.4558507,4.31732204 C55.4558507,4.33763454 55.4964757,4.37825954 55.5371007,4.39857204 C55.5777257,4.43919704 55.6386632,4.41888454 55.6996007,4.41888454 C55.7605382,4.41888454 55.8011632,4.39857204 55.8621007,4.39857204 L56.2074132,4.39857204 C56.3089757,4.39857204 56.3902257,4.35794704 56.4714757,4.35794704 C56.5326163,4.35794704 56.5730382,4.35794704 56.6542882,4.37825954 C56.6746007,4.37825954 56.7357413,4.39857204 56.8167882,4.39857204 L56.8777257,4.39857204 C56.8980382,4.39857204 56.8980382,4.41888454 56.9183507,4.41888454 C56.9589757,4.41888454 56.9996007,4.39857204 57.0404288,4.39857204 C57.1419913,4.39857204 57.2027257,4.39857204 57.3042882,4.37825954 C57.3855382,4.35794704 57.5482413,4.33763454 57.6699132,4.35794704 C57.6902257,4.35794704 57.6902257,4.37825954 57.7308507,4.37825954 C57.7917882,4.37825954 57.8730382,4.33763454 57.9746007,4.33763454 L58.3808507,4.33763454 C58.4417882,4.33763454 58.5027257,4.35794704 58.5638663,4.35794704 C58.6246007,4.35794704 58.6855382,4.33763454 58.7464757,4.33763454 C58.8074132,4.33763454 58.9089757,4.39857204 59.0105382,4.41888454 L59.1933507,4.41888454 C59.2136632,4.41888454 59.2136632,4.43919704 59.2542882,4.43919704 C59.2748038,4.43919704 59.2748038,4.41888454 59.3152257,4.41888454 C59.3558507,4.41888454 59.3964757,4.39857204 59.4574132,4.41888454 C59.4779288,4.41888454 59.4779288,4.43919704 59.4779288,4.43919704 C59.5386632,4.45950954 59.5996007,4.45950954 59.6402257,4.47982204 C59.6605382,4.50013454 59.6810538,4.50013454 59.7011632,4.52044704 C59.7417882,4.56107204 59.7826163,4.58138454 59.8230382,4.64232204 C59.8636632,4.68294704 59.8636632,4.68294704 59.8841788,4.74388454 C59.8841788,4.76419704 59.9042882,4.76419704 59.9042882,4.76419704 C59.9449132,4.88607204 59.9449132,5.08919704 59.9246007,5.21107204 C59.9246007,5.21107204 59.9042882,5.21107204 59.9042882,5.23138454 C59.9042882,5.25169704 59.9042882,5.29232204 59.8841788,5.33294704 C59.8841788,5.33294704 59.8636632,5.33294704 59.8636632,5.35325954 C59.8433507,5.39388454 59.8433507,5.41419704 59.8230382,5.45482204 C59.8230382,5.47513454 59.7826163,5.49544704 59.7826163,5.53607204 C59.7826163,5.55638454 59.7214757,5.59700954 59.7011632,5.63763454 C59.6605382,5.67825954 59.6402257,5.71888454 59.5996007,5.75950954 L59.5589757,5.75950954 C59.5386632,5.77982204 59.5386632,5.77982204 59.5183507,5.80013454 C59.4980382,5.82044704 59.3964757,5.88138454 59.3964757,5.92200954 C59.3964757,5.96263454 59.3152257,6.02357204 59.2542882,6.06419704 C59.1732413,6.14544704 59.0716788,6.22669704 58.9902257,6.32825954 C58.9701163,6.34857204 58.9701163,6.36888454 58.9496007,6.38919704 L58.9089757,6.38919704 C58.8886632,6.40950954 58.8685538,6.42982204 58.8277257,6.45013454 C58.8074132,6.45013454 58.8277257,6.47044704 58.8074132,6.47044704 C58.7669913,6.47044704 58.7669913,6.51107204 58.7261632,6.53138454 L58.6855382,6.53138454 L58.6654288,6.57200954 L58.6246007,6.57200954 C58.6042882,6.59232204 58.6042882,6.59232204 58.5839757,6.61263454 C58.5638663,6.63294704 58.5433507,6.65325954 58.5230382,6.67357204 L58.4824132,6.67357204 C58.4623038,6.71419704 58.4214757,6.71419704 58.3808507,6.75482204 C58.3199132,6.79544704 58.2792882,6.85638454 58.2183507,6.91732204 C58.1576163,6.97825954 58.1167882,7.03919704 58.0355382,7.05950954 C58.0152257,7.07982204 58.0355382,7.12044704 58.0152257,7.14075954 L57.9949132,7.14075954 C57.9746007,7.16107204 57.9949132,7.20169704 57.9746007,7.22200954 C57.9746007,7.24232204 57.9544913,7.22200954 57.9544913,7.24232204 L57.9339757,7.28294704 L57.8933507,7.30325954 L57.8933507,7.34388454 C57.8730382,7.36419704 57.8324132,7.40482204 57.8121007,7.42513454 C57.7917882,7.44544704 57.7513663,7.48607204 57.7308507,7.50638454 C57.6498038,7.58763454 57.5886632,7.64857204 57.4871007,7.72982204 C57.4667882,7.75013454 57.4261632,7.77044704 57.4058507,7.79075954 C57.3855382,7.81107204 57.4058507,7.83138454 57.3855382,7.85169704 C57.3652257,7.87200954 57.3451163,7.85169704 57.3246007,7.87200954 C57.3042882,7.89232204 57.2839757,7.93294704 57.2636632,7.95325954 C57.2230382,7.97357204 57.1621007,7.99388454 57.1214757,8.03450954 C57.0808507,8.05482204 57.0404288,8.09544704 56.9996007,8.13607204 C56.9183507,8.21732204 56.7964757,8.27825954 56.7761632,8.35950954 C56.7558507,8.42044704 56.8167882,8.56263454 56.8373038,8.62357204 L56.8373038,8.66419704 L56.8574132,8.66419704 L56.8574132,8.70482204 L56.8777257,8.70482204 L56.8777257,8.74544704 C56.8980382,8.76575954 56.8980382,8.80638454 56.9183507,8.86732204 L56.9388663,8.94857204 C56.9589757,8.96888454 56.9589757,9.00950954 56.9792882,9.05013454 C56.9792882,9.05013454 56.9996007,9.05013454 56.9996007,9.07044704 C56.9996007,9.07044704 57.0199132,9.11107204 57.0199132,9.13138454 C57.0605382,9.23294704 57.1011632,9.29388454 57.1419913,9.39544704 C57.1621007,9.45658766 57.1824132,9.51732204 57.2027257,9.59857204 L57.2230382,9.67982204 L57.2435538,9.67982204 L57.2435538,9.72044704 L57.2636632,9.72044704 L57.2636632,9.76127516 L57.2839757,9.76127516 L57.2839757,9.80169704 L57.3042882,9.80169704 L57.3042882,9.84232204 C57.3042882,9.84232204 57.3451163,9.90325954 57.3652257,9.94388454 C57.3855382,9.96440016 57.3652257,10.004822 57.3855382,10.045447 C57.4058507,10.086072 57.4058507,10.1063845 57.4261632,10.1470095 C57.4466788,10.207947 57.4667882,10.2690877 57.4871007,10.3501345 C57.5074132,10.3907595 57.5074132,10.451697 57.5277257,10.492322 C57.5277257,10.492322 57.5482413,10.492322 57.5482413,10.5126345 C57.5482413,10.5126345 57.5683507,10.614197 57.5683507,10.6345095 L57.6089757,10.6753377 L57.6089757,10.736072 C57.6089757,10.736072 57.6292882,10.736072 57.6292882,10.7563845 C57.6292882,10.7563845 57.6498038,10.7970095 57.6498038,10.817322 C57.6699132,10.8376345 57.6699132,10.8784627 57.6902257,10.9188845 C57.6902257,10.939197 57.7308507,10.9595095 57.7308507,10.9800252 L57.7308507,11.0001345 C57.7308507,11.020447 57.7714757,11.020447 57.7714757,11.0407595 L57.7714757,11.0815877 C57.7917882,11.101697 57.8324132,11.2032595 57.8529288,11.264197 L57.8730382,11.345447 C57.8933507,11.3657595 57.8730382,11.3657595 57.8933507,11.4063845 C57.8933507,11.426697 57.9136632,11.4470095 57.9136632,11.4878377 C57.9136632,11.507947 57.9339757,11.5894002 57.9544913,11.670447 C57.9544913,11.670447 57.9339757,11.6909627 57.9339757,11.711072 C57.9339757,11.711072 57.9544913,11.711072 57.9544913,11.7313845 L57.9544913,11.8126345 C57.9544913,11.8126345 57.9746007,11.8126345 57.9746007,11.832947 C57.9746007,11.954822 57.9544913,12.076697 57.8730382,12.157947 L57.8324132,12.1782595 L57.8324132,12.2188845 C57.8121007,12.239197 57.7917882,12.239197 57.7714757,12.2595095 L57.7714757,12.3003377 C57.7513663,12.320447 57.7105382,12.361072 57.6498038,12.4019002 L57.6292882,12.4220095 C57.6089757,12.442322 57.5277257,12.442322 57.4871007,12.4626345 C57.4871007,12.4626345 57.4871007,12.482947 57.4667882,12.482947 C57.4261632,12.482947 57.4058507,12.5034627 57.3652257,12.5034627 C57.3451163,12.5034627 57.3042882,12.482947 57.2636632,12.482947 C57.2027257,12.482947 57.1419913,12.523572 57.0808507,12.523572 C57.0199132,12.523572 56.9589757,12.5034627 56.8777257,12.5034627 C56.7558507,12.5034627 56.6542882,12.523572 56.5933507,12.482947 C56.5730382,12.482947 56.5730382,12.442322 56.5527257,12.442322 C56.5326163,12.4220095 56.5121007,12.4220095 56.4917882,12.4019002 C56.4714757,12.4019002 56.4714757,12.361072 56.4511632,12.361072 L56.4105382,12.361072 C56.3699132,12.3003377 56.2480382,12.2595095 56.1667882,12.1987752 C56.1464757,12.1782595 56.1263663,12.157947 56.0855382,12.1376345 L56.0652257,12.117322 C56.0449132,12.117322 56.0248038,12.076697 55.9839757,12.076697 L55.9433507,12.0563845 C55.9232413,12.0563845 55.9232413,12.0157595 55.9027257,12.0157595 C55.8824132,11.9956502 55.8621007,12.0157595 55.8417882,11.9956502 C55.8216788,11.9956502 55.8216788,11.954822 55.8011632,11.954822 L55.7605382,11.954822 C55.7402257,11.9345095 55.7201163,11.914197 55.6792882,11.8940877 C55.6589757,11.8940877 55.6792882,11.873572 55.6589757,11.873572 L55.6185538,11.8532595 C55.5980382,11.8532595 55.5980382,11.8126345 55.5777257,11.8126345 C55.5574132,11.8126345 55.5574132,11.7925252 55.5371007,11.7925252 L55.5169913,11.7720095 C55.4964757,11.751697 55.4558507,11.751697 55.4154288,11.711072 C55.3949132,11.6909627 55.3949132,11.670447 55.3746007,11.670447 L55.3339757,11.670447 C55.3138663,11.6501345 55.2933507,11.629822 55.2527257,11.6095095 C55.2324132,11.6095095 55.2527257,11.5894002 55.2324132,11.5894002 L55.1917882,11.5688845 C55.1714757,11.5688845 55.1714757,11.5282595 55.1511632,11.5282595 L55.1107413,11.5282595 L55.0902257,11.4878377 C55.0699132,11.467322 55.0496007,11.4878377 55.0292882,11.467322 C54.9886632,11.4470095 54.9886632,11.4063845 54.9480382,11.3862752 L54.9076163,11.3862752 C54.8871007,11.345447 54.8261632,11.3251345 54.7652257,11.2847127 C54.7449132,11.264197 54.7246007,11.2438845 54.6839757,11.223572 L54.6636632,11.2032595 C54.6433507,11.2032595 54.6230382,11.2032595 54.6029288,11.1831502 C54.5824132,11.1831502 54.5824132,11.142322 54.5621007,11.142322 C54.5417882,11.142322 54.5214757,11.101697 54.4808507,11.101697 L54.4402257,11.0815877 C54.4199132,11.0815877 54.4199132,11.0407595 54.3998038,11.0407595 C54.3792882,11.020447 54.3386632,11.0407595 54.3183507,11.020447 C54.2982413,11.020447 54.2982413,11.0001345 54.2777257,10.9800252 C54.1966788,10.939197 54.0951163,10.8784627 54.0136632,10.817322 C53.9935538,10.817322 53.9730382,10.7769002 53.9324132,10.7769002 L53.8919913,10.7563845 C53.8714757,10.7563845 53.8714757,10.7157595 53.8511632,10.7157595 L53.8105382,10.7157595 C53.7904288,10.695447 53.7699132,10.6753377 53.7292882,10.654822 C53.7089757,10.654822 53.7089757,10.614197 53.6888663,10.614197 C53.6683507,10.614197 53.6480382,10.5737752 53.6074132,10.5737752 L53.5667882,10.5532595 C53.5464757,10.5532595 53.5464757,10.5126345 53.5261632,10.5126345 C53.5058507,10.492322 53.4652257,10.5126345 53.4449132,10.492322 C53.4246007,10.492322 53.4246007,10.451697 53.4042882,10.451697 C53.3839757,10.4313845 53.3636632,10.4313845 53.3433507,10.411072 C53.3027257,10.3907595 53.2621007,10.329822 53.1808507,10.329822 C53.1199132,10.329822 53.0386632,10.3907595 52.9371007,10.451697 C52.9167882,10.451697 52.9167882,10.4722127 52.8964757,10.4722127 L52.8761632,10.492322 C52.8355382,10.5126345 52.7746007,10.5532595 52.7339757,10.5938845 C52.7136632,10.614197 52.7136632,10.6345095 52.6933507,10.654822 C52.6730382,10.6753377 52.6527257,10.654822 52.6324132,10.6753377 C52.6121007,10.695447 52.5714757,10.736072 52.5511632,10.7563845 L52.5105382,10.7563845 L52.4902257,10.7970095 C52.4699132,10.817322 52.4292882,10.8376345 52.3886632,10.857947 C52.3683507,10.8784627 52.3683507,10.8784627 52.3480382,10.898572 C52.2261632,11.0001345 52.1042882,11.101697 52.0027257,11.2032595 C51.9214757,11.2847127 51.8402257,11.3657595 51.7386632,11.467322 C51.6980382,11.507947 51.6574132,11.5282595 51.5964757,11.5688845 C51.5761632,11.5688845 51.5761632,11.6095095 51.5558507,11.6095095 C51.5355382,11.629822 51.4949132,11.629822 51.4542882,11.6501345 C51.3527257,11.711072 51.2714757,11.751697 51.1902257,11.832947 C51.1496007,11.873572 51.0886632,11.9345095 51.0277257,11.9956502 C51.0074132,12.0157595 50.9667882,12.0563845 50.9464757,12.076697 C50.9261632,12.0972127 50.8652257,12.0972127 50.8246007,12.117322 C50.8042882,12.117322 50.8042882,12.1376345 50.7839757,12.157947 C50.7636632,12.157947 50.7636632,12.1782595 50.7433507,12.1782595 C50.7230382,12.1782595 50.7027257,12.1782595 50.6824132,12.1987752 L50.6621007,12.239197 C50.6417882,12.2595095 50.6214757,12.239197 50.6011632,12.2595095 C50.5808507,12.2595095 50.6011632,12.279822 50.5808507,12.279822 C50.5605382,12.279822 50.5199132,12.3407595 50.4792882,12.361072 C50.4589757,12.3813845 50.4386632,12.361072 50.4183507,12.3813845 L50.3980382,12.4220095 C50.3777257,12.442322 50.3574132,12.4220095 50.3371007,12.442322 C50.3167882,12.442322 50.3167882,12.4626345 50.2964757,12.4626345 C50.2761632,12.4626345 50.2761632,12.5034627 50.2558507,12.5034627 L50.2152257,12.5034627 C50.1949132,12.523572 50.0933507,12.564197 50.0324132,12.5845095 L49.9917882,12.5845095 C49.9714757,12.6050252 49.9714757,12.6050252 49.9511632,12.6050252 C49.9105382,12.6050252 49.8292882,12.6657595 49.7683507,12.686072 L49.7277257,12.686072 C49.6871007,12.686072 49.6058507,12.726697 49.5449132,12.767322 C49.4839757,12.8081502 49.4433507,12.8282595 49.3621007,12.8688845 C49.2605382,12.889197 49.2199132,12.848572 49.1386632,12.848572 C49.0167882,12.848572 48.9152257,12.970447 48.8136632,12.9097127 L48.7527257,12.889197 C48.7324132,12.8688845 48.6917882,12.8081502 48.6511632,12.767322 C48.6308507,12.7470095 48.6511632,12.7470095 48.6308507,12.7470095 C48.6105382,12.7470095 48.5699132,12.7065877 48.5699132,12.686072 L48.5699132,12.6657595 C48.5089757,12.5845095 48.3871007,12.5034627 48.3464757,12.4019002 C48.3261632,12.320447 48.3464757,12.1987752 48.3464757,12.117322 C48.3464757,11.9751345 48.3667882,11.873572 48.3871007,11.8126345 L48.3871007,11.7720095 C48.4277257,11.7313845 48.4480382,11.5688845 48.4886632,11.507947 L48.4886632,11.467322 C48.5292882,11.4470095 48.5496007,11.304822 48.5699132,11.2438845 C48.5902257,11.2032595 48.6105382,11.1626345 48.6308507,11.101697 L48.6308507,11.061072 C48.6511632,11.0407595 48.6511632,11.020447 48.6714757,11.0001345 L48.6714757,10.9595095 C48.6917882,10.939197 48.6917882,10.9188845 48.7121007,10.898572 L48.7121007,10.857947 C48.7324132,10.8376345 48.7527257,10.736072 48.7730382,10.6753377 L48.7730382,10.6345095 C48.7933507,10.614197 48.7933507,10.5737752 48.8136632,10.5126345 C48.8339757,10.4722127 48.8339757,10.451697 48.8542882,10.411072 C48.8746007,10.3501345 48.8746007,10.3095095 48.8949132,10.248572 L48.8949132,10.207947 C48.9152257,10.1876345 48.9761632,9.98450954 48.9964757,9.94388454 L48.9964757,9.90325954 C49.0167882,9.88294704 49.0167882,9.86283766 49.0371007,9.84232204 L49.0371007,9.80169704 C49.0574132,9.78138454 49.0574132,9.78138454 49.0574132,9.76127516 L49.0777257,9.70013454 C49.0980382,9.67982204 49.1589757,9.57825954 49.1792882,9.49700954 C49.1996007,9.45658766 49.1996007,9.41575954 49.2199132,9.37513454 C49.2199132,9.33450954 49.2402257,9.31419704 49.2605382,9.27357204 C49.2605382,9.23294704 49.2808507,9.21263454 49.3011632,9.17200954 C49.3214757,9.13138454 49.3214757,9.09075954 49.3417882,9.02982204 L49.3417882,8.98919704 L49.3621007,8.98919704 C49.3621007,8.94857204 49.3824132,8.90794704 49.3824132,8.86732204 C49.4027257,8.80638454 49.4027257,8.76575954 49.4230382,8.68450954 C49.4433507,8.64388454 49.4636632,8.52200954 49.4230382,8.44075954 L49.3824132,8.40013454 C49.3621007,8.37982204 49.3417882,8.33919704 49.3214757,8.29857204 L49.2808507,8.27825954 C49.2605382,8.25794704 49.2605382,8.23763454 49.2402257,8.19700954 C49.1386632,8.07513454 48.9355382,7.91263454 48.8339757,7.81107204 C48.8136632,7.77044704 48.7933507,7.75013454 48.7527257,7.70950954 C48.7324132,7.68919704 48.6917882,7.64857204 48.6714757,7.62825954 L48.6714757,7.58763454 C48.6511632,7.56732204 48.6105382,7.56732204 48.5902257,7.52669704 C48.5699132,7.50638454 48.5496007,7.44544704 48.5292882,7.42513454 C48.5089757,7.40482204 48.4886632,7.40482204 48.4683507,7.38450954 C48.4480382,7.36419704 48.4683507,7.34388454 48.4480382,7.32357204 C48.4277257,7.30325954 48.3871007,7.28294704 48.3667882,7.24232204 C48.3464757,7.22200954 48.3261632,7.18138454 48.3058507,7.14075954 C48.2855382,7.12044704 48.2449132,7.10013454 48.2246007,7.05950954 C48.2042882,7.03919704 48.1636632,6.99857204 48.1433507,6.95794704 C48.1230382,6.91732204 48.0824132,6.89700954 48.0621007,6.87669704 C48.0417882,6.85638454 48.0417882,6.83607204 48.0214757,6.81575954 C48.0011632,6.79544704 48.0011632,6.79544704 47.9808507,6.77513454 C47.9605382,6.75482204 47.9199132,6.71419704 47.8996007,6.69388454 L47.8996007,6.65325954 L47.8589757,6.63294704 C47.8386632,6.61263454 47.8589757,6.59232204 47.8386632,6.57200954 C47.8183507,6.53138454 47.7777257,6.53138454 47.7574132,6.49075954 C47.7371007,6.47044704 47.7574132,6.45013454 47.7371007,6.42982204 C47.7371007,6.40950954 47.6964757,6.40950954 47.6964757,6.38919704 C47.6761632,6.34857204 47.6558507,6.32825954 47.6355382,6.28763454 C47.6152257,6.26732204 47.5949132,6.26732204 47.5746007,6.24700954 C47.5542882,6.22669704 47.5746007,6.20638454 47.5542882,6.18607204 C47.5136632,6.12513454 47.4324132,6.08450954 47.3714757,6.02357204 C47.3511632,6.00325954 47.3308507,6.00325954 47.3308507,5.98294704 C47.3105382,5.96263454 47.3308507,5.94232204 47.3105382,5.92200954 C47.2902257,5.90169704 47.2496007,5.88138454 47.2089757,5.84075954 C47.1886632,5.82044704 47.2089757,5.80013454 47.1886632,5.77982204 C47.1480382,5.71888454 46.9652257,5.63763454 47.0058507,5.45482204 C47.0058507,5.43450954 47.0261632,5.43450954 47.0261632,5.43450954 C47.0261632,5.35325954 47.0261632,5.27200954 47.0464757,5.17044704 C47.0464757,5.17044704 47.0667882,5.17044704 47.0667882,5.15013454 C47.0667882,5.10950954 47.0871007,5.08919704 47.1074132,5.04857204 C47.1277257,5.02825954 47.1277257,5.00794704 47.1277257,4.98763454 C47.1277257,4.96732204 47.1480382,4.96732204 47.1480382,4.96732204 C47.1683507,4.92669704 47.1480382,4.88607204 47.1683507,4.84544704 C47.2292882,4.64232204 47.2699132,4.60169704 47.4730382,4.54075954 C47.5542882,4.52044704 47.6558507,4.50013454 47.7371007,4.47982204 L47.8386632,4.47982204 C47.8589757,4.47982204 47.8589757,4.45950954 47.8996007,4.45950954 C47.9402257,4.45950954 47.9808507,4.47982204 48.0417882,4.47982204 C48.0824132,4.47982204 48.1433507,4.45950954 48.2042882,4.45950954 C48.2652257,4.45950954 48.3058507,4.43919704 48.3464757,4.43919704 C48.4277257,4.43919704 48.4886632,4.45950954 48.6105382,4.45950954 C48.6917882,4.45950954 48.7730382,4.43919704 48.8746007,4.43919704 C48.9558507,4.43919704 49.0371007,4.45950954 49.1183507,4.45950954 C49.1996007,4.45950954 49.2605382,4.43919704 49.3417882,4.43919704 L49.5855382,4.43919704 C49.5855382,4.43919704 49.5855382,4.41888454 49.6058507,4.41888454 L49.6871007,4.41888454 C49.6871007,4.41888454 49.6871007,4.39857204 49.7074132,4.39857204 C49.9511632,4.31732204 50.1746007,4.37825954 50.4183507,4.35794704" id="star" opacity="0.3"></path>
            <path d="M37.418894,4.35863976 C37.4392098,4.39927122 37.5001569,4.39927122 37.5814199,4.39927122 C37.6220513,4.37895549 37.642367,4.3180083 37.6626828,4.27737685 L37.6626828,4.23674539 C37.6829985,4.21642966 37.7033142,4.13516674 37.72363,4.09453529 L37.72363,4.05390383 L37.7439457,4.05390383 C37.7845771,3.95232519 37.8252086,3.83043081 37.8861558,3.72885217 C37.8861558,3.70853644 37.9267872,3.68822071 37.9267872,3.64758925 C37.9267872,3.62727352 37.947103,3.62727352 37.9674187,3.6069578 L37.9674187,3.56632634 C37.9877344,3.54601061 38.0283659,3.44443197 38.0486816,3.38348478 C38.0486816,3.38348478 38.0689974,3.38348478 38.0689974,3.36316905 C38.0689974,3.32253759 38.1096288,3.28190613 38.1299445,3.22095895 C38.1502603,3.16001176 38.170576,3.09906458 38.1908917,3.03811739 C38.1908917,3.01780166 38.2315232,3.01780166 38.2315232,2.99748593 L38.2315232,2.95685447 C38.2518389,2.93653875 38.2518389,2.91622302 38.2721546,2.89590729 L38.3127861,2.87559156 C38.3331018,2.85527583 38.3331018,2.81464437 38.3534176,2.77401292 C38.3534176,2.75369719 38.394049,2.75369719 38.394049,2.73338146 L38.394049,2.69275 C38.4346805,2.67243427 38.4346805,2.59117136 38.4549962,2.50990844 C38.4549962,2.50990844 38.4753119,2.50990844 38.4753119,2.48959271 C38.4753119,2.44896125 38.4956277,2.4083298 38.5159434,2.36769834 L38.5159434,2.32706688 L38.5362591,2.32706688 L38.5362591,2.28643542 C38.5565748,2.2661197 38.5565748,2.2661197 38.5565748,2.24580397 L38.5768906,2.18485678 C38.5972063,2.16454105 38.5972063,2.14422532 38.617522,2.12390959 L38.617522,2.08327814 C38.6784692,2.04264668 38.7191007,1.88012085 38.7597321,1.79885793 C38.7597321,1.79885793 38.7800479,1.79885793 38.7800479,1.7785422 C38.7800479,1.75822648 38.7800479,1.73791075 38.8003636,1.69727929 C38.8003636,1.67696356 38.840995,1.67696356 38.840995,1.65664783 L38.840995,1.61601637 C38.8613108,1.59570064 38.8613108,1.55506919 38.8816265,1.51443773 C38.8816265,1.494122 38.922258,1.494122 38.922258,1.47380627 L38.922258,1.43317481 C38.9425737,1.41285909 38.9425737,1.41285909 38.9425737,1.39254336 L38.9628894,1.33159617 L38.9832051,1.33159617 C39.0238366,1.27064898 39.0238366,1.2097018 39.0644681,1.12843888 C39.0644681,1.12843888 39.0847838,1.12843888 39.0847838,1.10812315 C39.0847838,1.0674917 39.1050995,1.04717597 39.1254152,1.00654451 C39.1254152,0.986228781 39.1254152,0.965913052 39.145731,0.925281594 C39.145731,0.904965866 39.1863624,0.904965866 39.1863624,0.884650137 L39.1863624,0.844018679 L39.2066782,0.844018679 L39.2066782,0.803387222 L39.2269939,0.803387222 L39.2269939,0.762755764 C39.2473096,0.742440035 39.2473096,0.722124306 39.2676254,0.701808578 L39.2676254,0.66117712 C39.2879411,0.640861391 39.3082568,0.620545662 39.3285725,0.559598476 C39.3285725,0.539282747 39.369204,0.539282747 39.369204,0.518967018 L39.369204,0.478335561 L39.3895197,0.478335561 C39.4098355,0.458019832 39.3895197,0.397072646 39.4098355,0.376756917 C39.4098355,0.356441188 39.4301512,0.356441188 39.4504669,0.336125459 C39.4504669,0.31580973 39.4707826,0.31580973 39.4707826,0.295494002 L39.5114141,0.254862544 L39.5114141,0.214231086 L39.6536242,0.0720209849 C39.7145714,0.0313895273 39.8567815,0.0110737985 39.9583601,0.0110737985 L39.9989916,0.0110737985 C40.039623,-0.0295576591 40.2021489,0.0517052561 40.3037275,0.0923367137 C40.3849904,0.112652442 40.4662533,0.132968171 40.5272005,0.173599629 C40.5475163,0.173599629 40.5475163,0.193915358 40.567832,0.214231086 C40.5881477,0.234546815 40.6490949,0.275178273 40.6899295,0.31580973 C40.7100421,0.336125459 40.6899295,0.356441188 40.7100421,0.376756917 L40.7506736,0.397072646 C40.7506736,0.417388374 40.7915082,0.458019832 40.7915082,0.478335561 C40.7915082,0.49865129 40.8116207,0.518967018 40.8319365,0.539282747 C40.8319365,0.559598476 40.8522522,0.559598476 40.8522522,0.579914205 C40.8522522,0.600229934 40.8930868,0.600229934 40.8930868,0.620545662 L40.8930868,0.66117712 L40.9131994,0.66117712 C40.9335151,0.701808578 40.9335151,0.722124306 40.9538308,0.762755764 L40.9946655,0.803387222 L40.9946655,0.864334408 C40.9946655,0.884650137 41.0350938,0.884650137 41.0350938,0.904965866 L41.0350938,0.945597323 C41.0554095,0.965913052 41.0554095,0.986228781 41.0757252,1.00654451 L41.0757252,1.04717597 C41.0962441,1.0674917 41.0962441,1.0674917 41.0962441,1.08780742 L41.1163567,1.14875461 C41.1569881,1.18938607 41.1978227,1.31128044 41.238251,1.41285909 L41.238251,1.45349054 C41.2788825,1.494122 41.319514,1.6363321 41.3398297,1.71759502 C41.3398297,1.71759502 41.3601454,1.71759502 41.3601454,1.73791075 C41.3601454,1.7785422 41.3601454,1.83948939 41.3804611,1.90043658 C41.3804611,1.92075231 41.4210926,1.94106803 41.4210926,1.94106803 C41.4414083,1.98169949 41.4210926,2.00201522 41.4414083,2.06296241 C41.4414083,2.06296241 41.4617241,2.06296241 41.4617241,2.08327814 C41.4617241,2.12390959 41.5226712,2.20517251 41.542987,2.24580397 C41.542987,2.2661197 41.5633027,2.2661197 41.5633027,2.28643542 C41.5836184,2.30675115 41.5836184,2.30675115 41.6041373,2.32706688 L41.6041373,2.36769834 C41.6242499,2.36769834 41.6648813,2.42864553 41.6648813,2.44896125 L41.6648813,2.46927698 L41.705716,2.50990844 L41.705716,2.57085563 C41.705716,2.59117136 41.7461443,2.59117136 41.7461443,2.61148708 L41.7461443,2.65211854 C41.8072946,2.69275 41.8477229,2.85527583 41.8883544,2.93653875 C41.8883544,2.95685447 41.8883544,2.9771702 41.9088733,2.99748593 L41.9493016,3.01780166 C41.9696173,3.03811739 41.9696173,3.07874885 41.989933,3.1193803 C41.989933,3.13969603 42.0305645,3.13969603 42.0305645,3.16001176 L42.0305645,3.20064322 C42.0508802,3.22095895 42.0508802,3.28190613 42.0915117,3.34285332 C42.1120305,3.36316905 42.1321431,3.46474769 42.1524588,3.52569488 C42.1524588,3.52569488 42.1727746,3.52569488 42.1727746,3.54601061 C42.1727746,3.58664207 42.1930903,3.62727352 42.2136092,3.68822071 C42.2136092,3.68822071 42.2337218,3.68822071 42.2337218,3.70853644 L42.2337218,3.72885217 C42.2540375,3.76948363 42.2743532,3.85074654 42.2946689,3.93200946 C42.2946689,3.95232519 42.3151878,3.95232519 42.3151878,3.97264091 C42.3353004,3.99295664 42.3556161,4.05390383 42.3759319,4.11485102 C42.3759319,4.13516674 42.3962476,4.13516674 42.3962476,4.13516674 C42.4167665,4.1757982 42.4167665,4.23674539 42.436879,4.29769257 C42.436879,4.29769257 42.4571948,4.29769257 42.4571948,4.3180083 C42.4571948,4.33832403 42.4978262,4.37895549 42.5384577,4.39927122 C42.5790891,4.43990268 42.6400363,4.41958695 42.7009835,4.41958695 C42.7619307,4.41958695 42.8025622,4.39927122 42.8635093,4.39927122 L43.2088767,4.39927122 C43.3104554,4.39927122 43.3917183,4.35863976 43.4729812,4.35863976 C43.5341316,4.35863976 43.5745599,4.35863976 43.6558228,4.37895549 C43.6761385,4.37895549 43.7372888,4.39927122 43.8183486,4.39927122 L43.8792958,4.39927122 C43.8996115,4.39927122 43.8996115,4.41958695 43.9199272,4.41958695 C43.9605587,4.41958695 44.0011902,4.39927122 44.0420248,4.39927122 C44.1436034,4.39927122 44.2043474,4.39927122 44.3059261,4.37895549 C44.387189,4.35863976 44.549918,4.33832403 44.6716092,4.35863976 C44.6919249,4.35863976 44.6919249,4.37895549 44.7325564,4.37895549 C44.7935036,4.37895549 44.8747665,4.33832403 44.9763451,4.33832403 L45.3826597,4.33832403 C45.4436069,4.33832403 45.5045541,4.35863976 45.5657044,4.35863976 C45.6264485,4.35863976 45.6873957,4.33832403 45.7483428,4.33832403 C45.80929,4.33832403 45.9108687,4.39927122 46.0124473,4.41958695 L46.1952889,4.41958695 C46.2156046,4.41958695 46.2156046,4.43990268 46.2562361,4.43990268 C46.2767549,4.43990268 46.2767549,4.41958695 46.3171832,4.41958695 C46.3578147,4.41958695 46.3984462,4.39927122 46.4593933,4.41958695 C46.4799122,4.41958695 46.4799122,4.43990268 46.4799122,4.43990268 C46.5406563,4.46021841 46.6016034,4.46021841 46.6422349,4.48053413 C46.6625506,4.50084986 46.6830695,4.50084986 46.7031821,4.52116559 C46.7438135,4.56179705 46.7846482,4.58211278 46.8250765,4.64305996 C46.8657079,4.68369142 46.8657079,4.68369142 46.8862268,4.74463861 C46.8862268,4.76495434 46.9063394,4.76495434 46.9063394,4.76495434 C46.9469708,4.88684871 46.9469708,5.090006 46.9266551,5.21190037 C46.9266551,5.21190037 46.9063394,5.21190037 46.9063394,5.2322161 C46.9063394,5.25253183 46.9063394,5.29316329 46.8862268,5.33379474 C46.8862268,5.33379474 46.8657079,5.33379474 46.8657079,5.35411047 C46.8453922,5.39474193 46.8453922,5.41505766 46.8250765,5.45568912 C46.8250765,5.47600485 46.7846482,5.49632057 46.7846482,5.53695203 C46.7846482,5.55726776 46.7234978,5.59789922 46.7031821,5.63853068 C46.6625506,5.67916213 46.6422349,5.71979359 46.6016034,5.76042505 L46.560972,5.76042505 L46.5203405,5.80105651 C46.5000248,5.82137223 46.3984462,5.88231942 46.3984462,5.92295088 C46.3984462,5.96358234 46.3171832,6.02452952 46.2562361,6.06516098 C46.1751763,6.1464239 46.0735977,6.22768681 45.9921316,6.32926545 C45.972019,6.34958118 45.972019,6.36989691 45.9515001,6.39021264 L45.9108687,6.39021264 C45.8905529,6.41052837 45.8704404,6.4308441 45.8296058,6.45115983 C45.80929,6.45115983 45.8296058,6.47147556 45.80929,6.47147556 C45.7688617,6.47147556 45.7688617,6.51210701 45.7280271,6.53242274 L45.6873957,6.53242274 L45.6672831,6.5730542 L45.6264485,6.5730542 C45.6061327,6.59336993 45.6061327,6.59336993 45.585817,6.61368566 C45.5657044,6.63400139 45.5451855,6.65431712 45.5248698,6.67463284 L45.4842384,6.67463284 C45.4641258,6.7152643 45.4232912,6.7152643 45.3826597,6.75589576 C45.3217125,6.79652722 45.2810811,6.8574744 45.2201339,6.91842159 C45.1593899,6.97936878 45.1185552,7.04031596 45.0372923,7.06063169 C45.0169766,7.08094742 45.0372923,7.12157888 45.0169766,7.14189461 L44.9966609,7.14189461 C44.9763451,7.16221034 44.9966609,7.20284179 44.9763451,7.22315752 C44.9763451,7.24347325 44.9562326,7.22315752 44.9562326,7.24347325 L44.9357137,7.28410471 L44.8950822,7.30442044 L44.8950822,7.34505189 C44.8747665,7.36536762 44.834135,7.40599908 44.8138193,7.42631481 C44.7935036,7.44663054 44.7530753,7.487262 44.7325564,7.50757773 C44.6514966,7.58884064 44.5903463,7.64978783 44.4887677,7.73105074 C44.4684519,7.75136647 44.4278205,7.7716822 44.4075047,7.79199793 C44.387189,7.81231366 44.4075047,7.83262939 44.387189,7.85294511 C44.3668733,7.87326084 44.3467607,7.85294511 44.3262418,7.87326084 C44.3059261,7.89357657 44.2856104,7.93420803 44.2652946,7.95452376 C44.2246632,7.97483949 44.163716,7.99515522 44.1230845,8.03578667 C44.0824531,8.0561024 44.0420248,8.09673386 44.0011902,8.13736532 C43.9199272,8.21862823 43.7980329,8.27957542 43.7777171,8.36083833 C43.7574014,8.42178552 43.8183486,8.56399562 43.8388675,8.62494281 L43.8388675,8.66557427 L43.8589801,8.66557427 L43.8589801,8.70620572 L43.8792958,8.70620572 L43.8792958,8.74683718 C43.8996115,8.76715291 43.8996115,8.80778437 43.9199272,8.86873155 L43.9404461,8.94999447 C43.9605587,8.9703102 43.9605587,9.01094166 43.9808744,9.05157311 C43.9808744,9.05157311 44.0011902,9.05157311 44.0011902,9.07188884 C44.0011902,9.07188884 44.0215059,9.1125203 44.0215059,9.13283603 C44.0621373,9.23441467 44.1027688,9.29536186 44.1436034,9.3969405 C44.163716,9.45809085 44.1840317,9.51883488 44.2043474,9.60009779 L44.2246632,9.68136071 L44.2451821,9.68136071 L44.2451821,9.72199216 L44.2652946,9.72199216 L44.2652946,9.76282678 L44.2856104,9.76282678 L44.2856104,9.80325508 L44.3059261,9.80325508 L44.3059261,9.84388654 C44.3059261,9.84388654 44.3467607,9.90483372 44.3668733,9.94546518 C44.387189,9.96598407 44.3668733,10.0064124 44.387189,10.0470438 C44.4075047,10.0876753 44.4075047,10.107991 44.4278205,10.1486225 C44.4483394,10.2095697 44.4684519,10.27072 44.4887677,10.3517798 C44.5090834,10.3924112 44.5090834,10.4533584 44.5293991,10.4939899 C44.5293991,10.4939899 44.549918,10.4939899 44.549918,10.5143056 C44.549918,10.5143056 44.5700306,10.6158842 44.5700306,10.6362 L44.610662,10.6770346 L44.610662,10.7377786 C44.610662,10.7377786 44.6309778,10.7377786 44.6309778,10.7580943 C44.6309778,10.7580943 44.6514966,10.7987258 44.6514966,10.8190415 C44.6716092,10.8393572 44.6716092,10.8801919 44.6919249,10.9206202 C44.6919249,10.9409359 44.7325564,10.9612516 44.7325564,10.9817705 L44.7325564,11.0018831 C44.7325564,11.0221988 44.7731879,11.0221988 44.7731879,11.0425145 L44.7731879,11.0833492 C44.7935036,11.1034617 44.834135,11.2050404 44.8546539,11.2659876 L44.8747665,11.3472505 C44.8950822,11.3675662 44.8747665,11.3675662 44.8950822,11.4081977 C44.8950822,11.4285134 44.915398,11.4488291 44.915398,11.4896637 C44.915398,11.5097763 44.9357137,11.5912424 44.9562326,11.6723021 C44.9562326,11.6723021 44.9357137,11.692821 44.9357137,11.7129336 C44.9357137,11.7129336 44.9562326,11.7129336 44.9562326,11.7332493 L44.9562326,11.8145122 C44.9562326,11.8145122 44.9763451,11.8145122 44.9763451,11.834828 C44.9763451,11.9567223 44.9562326,12.0786167 44.8747665,12.1598796 L44.834135,12.1801953 L44.834135,12.2208268 C44.8138193,12.2411425 44.7935036,12.2411425 44.7731879,12.2614583 L44.7731879,12.3022929 C44.7530753,12.3224055 44.7122407,12.3630369 44.6514966,12.4038715 L44.6309778,12.4239841 C44.610662,12.4442998 44.5293991,12.4442998 44.4887677,12.4646156 C44.4887677,12.4646156 44.4887677,12.4849313 44.4684519,12.4849313 C44.4278205,12.4849313 44.4075047,12.5054502 44.3668733,12.5054502 C44.3467607,12.5054502 44.3059261,12.4849313 44.2652946,12.4849313 C44.2043474,12.4849313 44.1436034,12.5255627 44.0824531,12.5255627 C44.0215059,12.5255627 43.9605587,12.5054502 43.8792958,12.5054502 C43.7574014,12.5054502 43.6558228,12.5255627 43.5948756,12.4849313 C43.5745599,12.4849313 43.5745599,12.4442998 43.5542441,12.4442998 C43.5341316,12.4239841 43.5136127,12.4239841 43.4932969,12.4038715 C43.4729812,12.4038715 43.4729812,12.3630369 43.4526655,12.3630369 L43.412034,12.3630369 C43.3714026,12.3022929 43.2495082,12.2614583 43.1682453,12.2007142 C43.1479296,12.1801953 43.127817,12.1598796 43.0869824,12.1395639 L43.0666666,12.1192482 C43.0463509,12.1192482 43.0262383,12.0786167 42.9854037,12.0786167 L42.9447723,12.058301 C42.9246597,12.058301 42.9246597,12.0176695 42.9041408,12.0176695 C42.8838251,11.9975569 42.8635093,12.0176695 42.8431936,11.9975569 C42.823081,11.9975569 42.823081,11.9567223 42.8025622,11.9567223 L42.7619307,11.9567223 C42.741615,11.9364066 42.7215024,11.9160909 42.6806678,11.8959783 C42.6603521,11.8959783 42.6806678,11.8754594 42.6603521,11.8754594 L42.6199238,11.8551437 C42.5994049,11.8551437 42.5994049,11.8145122 42.5790891,11.8145122 C42.5587734,11.8145122 42.5587734,11.7943997 42.5384577,11.7943997 L42.5183451,11.7738808 C42.4978262,11.753565 42.4571948,11.753565 42.4167665,11.7129336 C42.3962476,11.692821 42.3962476,11.6723021 42.3759319,11.6723021 L42.3353004,11.6723021 C42.3151878,11.6519864 42.2946689,11.6316707 42.2540375,11.6113549 C42.2337218,11.6113549 42.2540375,11.5912424 42.2337218,11.5912424 L42.1930903,11.5707235 C42.1727746,11.5707235 42.1727746,11.530092 42.1524588,11.530092 L42.1120305,11.530092 L42.0915117,11.4896637 C42.0711959,11.4691448 42.0508802,11.4896637 42.0305645,11.4691448 C41.989933,11.4488291 41.989933,11.4081977 41.9493016,11.3880851 L41.9088733,11.3880851 C41.8883544,11.3472505 41.8274072,11.3269347 41.76646,11.2865064 C41.7461443,11.2659876 41.7258285,11.2456718 41.6851971,11.2253561 L41.6648813,11.2050404 C41.6445656,11.2050404 41.6242499,11.2050404 41.6041373,11.1849278 C41.5836184,11.1849278 41.5836184,11.1440932 41.5633027,11.1440932 C41.542987,11.1440932 41.5226712,11.1034617 41.4820398,11.1034617 L41.4414083,11.0833492 C41.4210926,11.0833492 41.4210926,11.0425145 41.40098,11.0425145 C41.3804611,11.0221988 41.3398297,11.0425145 41.319514,11.0221988 C41.2994014,11.0221988 41.2994014,11.0018831 41.2788825,10.9817705 C41.1978227,10.9409359 41.0962441,10.8801919 41.014778,10.8190415 C40.9946655,10.8190415 40.9741466,10.7786132 40.9335151,10.7786132 L40.8930868,10.7580943 C40.8725679,10.7580943 40.8725679,10.7174629 40.8522522,10.7174629 L40.8116207,10.7174629 C40.7915082,10.6971471 40.7709893,10.6770346 40.7303578,10.6565157 C40.7100421,10.6565157 40.7100421,10.6158842 40.6899295,10.6158842 C40.6694106,10.6158842 40.6490949,10.5754559 40.6084635,10.5754559 L40.567832,10.554937 C40.5475163,10.554937 40.5475163,10.5143056 40.5272005,10.5143056 C40.5068848,10.4939899 40.4662533,10.5143056 40.4459376,10.4939899 C40.4256219,10.4939899 40.4256219,10.4533584 40.4053062,10.4533584 C40.3849904,10.4330427 40.3646747,10.4330427 40.344359,10.4127269 C40.3037275,10.3924112 40.2630961,10.331464 40.1818331,10.331464 C40.120886,10.331464 40.039623,10.3924112 39.9380444,10.4533584 C39.9177287,10.4533584 39.9177287,10.4738773 39.8974129,10.4738773 L39.8770972,10.4939899 C39.8364658,10.5143056 39.7755186,10.554937 39.7348871,10.5955685 C39.7145714,10.6158842 39.7145714,10.6362 39.6942557,10.6565157 C39.6739399,10.6770346 39.6536242,10.6565157 39.6333085,10.6770346 C39.6129927,10.6971471 39.5723613,10.7377786 39.5520456,10.7580943 L39.5114141,10.7580943 L39.4910984,10.7987258 C39.4707826,10.8190415 39.4301512,10.8393572 39.3895197,10.859673 C39.369204,10.8801919 39.369204,10.8801919 39.3488883,10.9003044 C39.2269939,11.0018831 39.1050995,11.1034617 39.0035209,11.2050404 C38.922258,11.2865064 38.840995,11.3675662 38.7394164,11.4691448 C38.6987849,11.5097763 38.6581535,11.530092 38.5972063,11.5707235 C38.5768906,11.5707235 38.5768906,11.6113549 38.5565748,11.6113549 C38.5362591,11.6316707 38.4956277,11.6316707 38.4549962,11.6519864 C38.3534176,11.7129336 38.2721546,11.753565 38.1908917,11.834828 C38.1502603,11.8754594 38.0893131,11.9364066 38.0283659,11.9975569 C38.0080502,12.0176695 37.9674187,12.058301 37.947103,12.0786167 C37.9267872,12.0991356 37.8658401,12.0991356 37.8252086,12.1192482 C37.8048929,12.1192482 37.8048929,12.1395639 37.7845771,12.1598796 C37.7642614,12.1598796 37.7642614,12.1801953 37.7439457,12.1801953 C37.72363,12.1801953 37.7033142,12.1801953 37.6829985,12.2007142 L37.6626828,12.2411425 C37.642367,12.2614583 37.6220513,12.2411425 37.6017356,12.2614583 C37.5814199,12.2614583 37.6017356,12.281774 37.5814199,12.281774 C37.5611041,12.281774 37.5204727,12.3427212 37.4798412,12.3630369 C37.4595255,12.3833526 37.4392098,12.3630369 37.418894,12.3833526 L37.3985783,12.4239841 C37.3782626,12.4442998 37.3579468,12.4239841 37.3376311,12.4442998 C37.3173154,12.4442998 37.3173154,12.4646156 37.2969997,12.4646156 C37.2766839,12.4646156 37.2766839,12.5054502 37.2563682,12.5054502 L37.2157367,12.5054502 C37.195421,12.5255627 37.0938424,12.5661942 37.0328952,12.5865099 L36.9922637,12.5865099 C36.971948,12.6070288 36.971948,12.6070288 36.9516323,12.6070288 C36.9110008,12.6070288 36.8297379,12.6677728 36.7687907,12.6880886 L36.7281593,12.6880886 C36.6875278,12.6880886 36.6062649,12.72872 36.5453177,12.7693515 C36.4843705,12.8101861 36.443739,12.8302987 36.3624761,12.8709301 C36.2608975,12.8912459 36.220266,12.8506144 36.1390031,12.8506144 C36.0171087,12.8506144 35.9155301,12.9725088 35.8139515,12.9117647 L35.7530043,12.8912459 C35.7326885,12.8709301 35.6920571,12.8101861 35.6514256,12.7693515 C35.6311099,12.7490358 35.6514256,12.7490358 35.6311099,12.7490358 C35.6107942,12.7490358 35.5701627,12.7086075 35.5701627,12.6880886 L35.5701627,12.6677728 C35.5092155,12.5865099 35.3873212,12.5054502 35.3466897,12.4038715 C35.326374,12.3224055 35.3466897,12.2007142 35.3466897,12.1192482 C35.3466897,11.9770381 35.3670054,11.8754594 35.3873212,11.8145122 L35.3873212,11.7738808 C35.4279526,11.7332493 35.4482683,11.5707235 35.4888998,11.5097763 L35.4888998,11.4691448 C35.5295313,11.4488291 35.549847,11.306619 35.5701627,11.2456718 C35.5904784,11.2050404 35.6107942,11.1644089 35.6311099,11.1034617 L35.6311099,11.0628303 C35.6514256,11.0425145 35.6514256,11.0221988 35.6717414,11.0018831 L35.6717414,10.9612516 C35.6920571,10.9409359 35.6920571,10.9206202 35.7123728,10.9003044 L35.7123728,10.859673 C35.7326885,10.8393572 35.7530043,10.7377786 35.77332,10.6770346 L35.77332,10.6362 C35.7936357,10.6158842 35.7936357,10.5754559 35.8139515,10.5143056 C35.8342672,10.4738773 35.8342672,10.4533584 35.8545829,10.4127269 C35.8748986,10.3517798 35.8748986,10.3111483 35.8952144,10.2502011 L35.8952144,10.2095697 C35.9155301,10.1892539 35.9764773,9.98609664 35.996793,9.94546518 L35.996793,9.90483372 C36.0171087,9.88451799 36.0171087,9.86440542 36.0374245,9.84388654 L36.0374245,9.80325508 C36.0577402,9.78293935 36.0577402,9.78293935 36.0577402,9.76282678 L36.0780559,9.70167644 C36.0983717,9.68136071 36.1593188,9.57978206 36.1796346,9.49851915 C36.1999503,9.45809085 36.1999503,9.41725623 36.220266,9.37662477 C36.220266,9.33599332 36.2405818,9.31567759 36.2608975,9.27504613 C36.2608975,9.23441467 36.2812132,9.21409894 36.3015289,9.17346749 C36.3218447,9.13283603 36.3218447,9.09220457 36.3421604,9.03125738 L36.3421604,8.99062593 L36.3624761,8.99062593 C36.3624761,8.94999447 36.3827919,8.90936301 36.3827919,8.86873155 C36.4031076,8.80778437 36.4031076,8.76715291 36.4234233,8.68589 C36.443739,8.64525854 36.4640548,8.52336416 36.4234233,8.44210125 L36.3827919,8.40146979 C36.3624761,8.38115406 36.3421604,8.34052261 36.3218447,8.29989115 L36.2812132,8.27957542 C36.2608975,8.25925969 36.2608975,8.23894396 36.2405818,8.1983125 C36.1390031,8.07641813 35.9358458,7.9138923 35.8342672,7.81231366 C35.8139515,7.7716822 35.7936357,7.75136647 35.7530043,7.71073501 C35.7326885,7.69041928 35.6920571,7.64978783 35.6717414,7.6294721 L35.6717414,7.58884064 C35.6514256,7.56852491 35.6107942,7.56852491 35.5904784,7.52789345 C35.5701627,7.50757773 35.549847,7.44663054 35.5295313,7.42631481 C35.5092155,7.40599908 35.4888998,7.40599908 35.4685841,7.38568335 C35.4482683,7.36536762 35.4685841,7.34505189 35.4482683,7.32473617 C35.4279526,7.30442044 35.3873212,7.28410471 35.3670054,7.24347325 C35.3466897,7.22315752 35.326374,7.18252606 35.3060582,7.14189461 C35.2857425,7.12157888 35.245111,7.10126315 35.2247953,7.06063169 C35.2044796,7.04031596 35.1638481,6.99968451 35.1435324,6.95905305 C35.1232167,6.91842159 35.0825852,6.89810586 35.0622695,6.87779013 C35.0419538,6.8574744 35.0419538,6.83715867 35.021638,6.81684295 C35.0013223,6.79652722 35.0013223,6.79652722 34.9810066,6.77621149 C34.9606908,6.75589576 34.9200594,6.7152643 34.8997437,6.69494857 L34.8997437,6.65431712 L34.8591122,6.63400139 C34.8387965,6.61368566 34.8591122,6.59336993 34.8387965,6.5730542 C34.8184807,6.53242274 34.7778493,6.53242274 34.7575336,6.49179129 C34.7372178,6.47147556 34.7575336,6.45115983 34.7372178,6.4308441 C34.7372178,6.41052837 34.6965864,6.41052837 34.6965864,6.39021264 C34.6762706,6.34958118 34.6559549,6.32926545 34.6356392,6.288634 C34.6153235,6.26831827 34.5950077,6.26831827 34.574692,6.24800254 C34.5543763,6.22768681 34.574692,6.20737108 34.5543763,6.18705535 C34.5137448,6.12610817 34.4324819,6.08547671 34.3715347,6.02452952 C34.351219,6.00421379 34.3309033,6.00421379 34.3309033,5.98389807 C34.3105875,5.96358234 34.3309033,5.94326661 34.3105875,5.92295088 C34.2902718,5.90263515 34.2496403,5.88231942 34.2090089,5.84168796 C34.1886932,5.82137223 34.2090089,5.80105651 34.1886932,5.78074078 C34.1480617,5.71979359 33.9652201,5.63853068 34.0058516,5.45568912 C34.0058516,5.43537339 34.0261673,5.43537339 34.0261673,5.43537339 C34.0261673,5.35411047 34.0261673,5.27284756 34.046483,5.17126891 C34.046483,5.17126891 34.0667988,5.17126891 34.0667988,5.15095318 C34.0667988,5.11032173 34.0871145,5.090006 34.1074302,5.04937454 C34.127746,5.02905881 34.127746,5.00874308 34.127746,4.98842735 C34.127746,4.96811163 34.1480617,4.96811163 34.1480617,4.96811163 C34.1683774,4.92748017 34.1480617,4.88684871 34.1683774,4.84621725 C34.2293246,4.64305996 34.2699561,4.60242851 34.4731134,4.54148132 C34.5543763,4.52116559 34.6559549,4.50084986 34.7372178,4.48053413 L34.8387965,4.48053413 C34.8591122,4.48053413 34.8591122,4.46021841 34.8997437,4.46021841 C34.9403751,4.46021841 34.9810066,4.48053413 35.0419538,4.48053413 C35.0825852,4.48053413 35.1435324,4.46021841 35.2044796,4.46021841 C35.2654268,4.46021841 35.3060582,4.43990268 35.3466897,4.43990268 C35.4279526,4.43990268 35.4888998,4.46021841 35.6107942,4.46021841 C35.6920571,4.46021841 35.77332,4.43990268 35.8748986,4.43990268 C35.9561616,4.43990268 36.0374245,4.46021841 36.1186874,4.46021841 C36.1999503,4.46021841 36.2608975,4.43990268 36.3421604,4.43990268 L36.5859491,4.43990268 C36.5859491,4.43990268 36.5859491,4.41958695 36.6062649,4.41958695 L36.6875278,4.41958695 C36.6875278,4.41958695 36.6875278,4.39927122 36.7078435,4.39927122 C36.9516323,4.3180083 37.1751053,4.37895549 37.418894,4.35863976" id="star-filled"></path>
            <g id="time" transform="translate(17.000000, 1.000000)" stroke="#9E9E37" fill-rule="nonzero">
                <path d="M15.3684211,4.88888889 C14.9707602,3.92982456 14.3859649,3.0877193 13.6608187,2.33918129 C12.9356725,1.61403509 12.0701754,1.02923977 11.1111111,0.631578947 C10.128655,0.210526316 9.07602339,0 8,0 C6.92397661,0 5.87134503,0.210526316 4.88888889,0.631578947 C3.92982456,1.02923977 3.0877193,1.61403509 2.33918129,2.33918129 C1.61403509,3.06432749 1.02923977,3.92982456 0.631578947,4.88888889 C0.210526316,5.87134503 0,6.92397661 0,8 C0,9.07602339 0.210526316,10.128655 0.631578947,11.1111111 C1.02923977,12.0701754 1.61403509,12.9122807 2.33918129,13.6608187 C3.06432749,14.3859649 3.92982456,14.9707602 4.88888889,15.3684211 C5.87134503,15.7894737 6.92397661,16 8,16 C9.07602339,16 10.128655,15.7894737 11.1111111,15.3684211 C12.0701754,14.9707602 12.9122807,14.3859649 13.6608187,13.6608187 C14.3859649,12.9356725 14.9707602,12.0701754 15.3684211,11.1111111 C15.7894737,10.128655 16,9.07602339 16,8 C16,6.92397661 15.7894737,5.87134503 15.3684211,4.88888889 Z M7.97660819,14.2923977 C4.51461988,14.2923977 1.68421053,11.4619883 1.68421053,8 C1.68421053,4.5380117 4.51461988,1.70760234 7.97660819,1.70760234 C11.4385965,1.70760234 14.2690058,4.5380117 14.2690058,8 C14.2690058,11.4619883 11.4385965,14.2923977 7.97660819,14.2923977 Z" id="Shape" stroke-width="0.3"></path>
                <path d="M8.075,4 C7.575,4 7.15,4.34552846 7.15,4.75203252 L7.15,7.49593496 L4.925,7.49593496 C4.425,7.49593496 4,7.84146341 4,8.24796748 C4,8.65447154 4.425,9 4.925,9 L8.075,9 C8.575,9 9,8.65447154 9,8.24796748 L9,4.75203252 C9,4.34552846 8.575,4 8.075,4 Z" id="Shape" stroke-width="0.2"></path>
            </g>
            <path d="M14.9663159,15.1635111 C14.6390758,12.294612 12.0348704,10.5819221 8.00083793,10.5819221 C4.11445995,10.5819221 1.59769,12.1064538 1.09515036,14.7660834 C1.0248591,15.1452691 1,16.2416284 1,16.4875868 C1,16.7706438 1.23980463,17 1.53575655,17 L14.4642049,17 C14.6075733,17 14.7449413,16.9450693 14.8454492,16.8475058 C14.9461715,16.7499424 15.0016759,16.6179447 14.9999614,16.4808229 C14.9845316,15.3221542 14.970602,15.2026594 14.9663159,15.1635111 Z M2.08201392,15.9751736 C2.09551498,15.5720069 2.12058839,15.1063257 2.14994785,14.9468628 C2.69899116,12.040865 6.05132701,11.6069534 8.00083793,11.6069534 C9.64882506,11.6069534 13.5234164,11.9644129 13.9008033,15.2727576 C13.905518,15.3237939 13.9130186,15.5568394 13.9205191,15.9753785 L2.08201392,15.9753785 L2.08201392,15.9751736 Z M8.00083793,9.4451846 C10.1500789,9.4451846 11.8985739,7.44000922 11.8985739,4.97530168 C11.8985739,2.63480311 10.2958047,1 8.00083793,1 C5.70587119,1 4.10310191,2.63459814 4.10310191,4.97530168 C4.10288761,7.44000922 5.85159697,9.4451846 8.00083793,9.4451846 Z M8.00083793,2.02503139 C9.69147128,2.02503139 10.8270609,3.21075555 10.8270609,4.97550665 C10.8270609,6.8751249 9.55924657,8.42056314 8.00083793,8.42056314 C6.44242929,8.42056314 5.174615,6.8751249 5.174615,4.97550665 C5.1744007,3.21075555 6.31020457,2.02503139 8.00083793,2.02503139 Z" id="people" stroke="#FFFFFF" stroke-width="0.5" fill-rule="nonzero"></path>
        </g>
    </g>
</svg>