<?xml version="1.0" encoding="UTF-8" standalone="no"?>
<svg width="48px" height="16px" viewBox="0 0 48 16" version="1.1" xmlns="http://www.w3.org/2000/svg" xmlns:xlink="http://www.w3.org/1999/xlink">
    <!-- Generator: Sketch 44.1 (41455) - http://www.bohemiancoding.com/sketch -->
    <title>recipe-icons</title>
    <desc>Created with Sketch.</desc>
    <defs></defs>
    <g id="Page-1" stroke="none" stroke-width="1" fill="none" fill-rule="evenodd">
        <g id="recipe-icons" fill-rule="nonzero">
            <g id="time" fill="#000000">
                <path d="M15.3684211,4.88888889 C14.9707602,3.92982456 14.3859649,3.0877193 13.6608187,2.33918129 C12.9356725,1.61403509 12.0701754,1.02923977 11.1111111,0.631578947 C10.128655,0.210526316 9.07602339,0 8,0 C6.92397661,0 5.87134503,0.210526316 4.88888889,0.631578947 C3.92982456,1.02923977 3.0877193,1.61403509 2.33918129,2.33918129 C1.61403509,3.06432749 1.02923977,3.92982456 0.631578947,4.88888889 C0.210526316,5.87134503 0,6.92397661 0,8 C0,9.07602339 0.210526316,10.128655 0.631578947,11.1111111 C1.02923977,12.0701754 1.61403509,12.9122807 2.33918129,13.6608187 C3.06432749,14.3859649 3.92982456,14.9707602 4.88888889,15.3684211 C5.87134503,15.7894737 6.92397661,16 8,16 C9.07602339,16 10.128655,15.7894737 11.1111111,15.3684211 C12.0701754,14.9707602 12.9122807,14.3859649 13.6608187,13.6608187 C14.3859649,12.9356725 14.9707602,12.0701754 15.3684211,11.1111111 C15.7894737,10.128655 16,9.07602339 16,8 C16,6.92397661 15.7894737,5.87134503 15.3684211,4.88888889 Z M7.97660819,14.2923977 C4.51461988,14.2923977 1.68421053,11.4619883 1.68421053,8 C1.68421053,4.5380117 4.51461988,1.70760234 7.97660819,1.70760234 C11.4385965,1.70760234 14.2690058,4.5380117 14.2690058,8 C14.2690058,11.4619883 11.4385965,14.2923977 7.97660819,14.2923977 Z" id="Shape"></path>
                <path d="M8.075,4 C7.575,4 7.15,4.34552846 7.15,4.75203252 L7.15,7.49593496 L4.925,7.49593496 C4.425,7.49593496 4,7.84146341 4,8.24796748 C4,8.65447154 4.425,9 4.925,9 L8.075,9 C8.575,9 9,8.65447154 9,8.24796748 L9,4.75203252 C9,4.34552846 8.575,4 8.075,4 Z" id="Shape"></path>
            </g>
            <polygon id="Shape" fill="#C53C27" points="26.477 5.618 24.059 1 21.639 5.618 16.5 6.491 20.145 10.219 19.387 15.376 24.059 13.063 28.731 15.376 27.973 10.219 31.618 6.491"></polygon>
            <path d="M47.6199999,6.49071464 L42.480472,5.61813525 L40.0599999,1 L37.6412947,5.61813525 L32.5,6.49071464 L36.1457256,10.218607 L35.3886656,15.37813 L40.0608833,13.0633217 L44.7331011,15.3763637 L43.976041,10.218607 L47.6199999,6.49071464 Z M40.0591166,12.1006583 L36.4787614,13.8740787 L37.0582612,9.92185931 L34.2650012,7.06566321 L38.205777,6.39621465 L40.0591166,2.85732232 L41.9142229,6.39621465 L45.853232,7.06566321 L43.0599719,9.92185931 L43.6394718,13.8740787 L40.0591166,12.1006583 Z" id="Shape" fill="#737373"></path>
        </g>
    </g>
</svg>